<?xml version="1.0" encoding="UTF-8" standalone="no"?>
<!-- Created with Inkscape (http://www.inkscape.org/) -->

<svg
   width="128"
   height="64"
   viewBox="0 0 128 64"
   version="1.1"
   id="svg5"
   inkscape:version="1.1 (ce6663b3b7, 2021-05-25)"
   sodipodi:docname="icons.svg"
   xmlns:inkscape="http://www.inkscape.org/namespaces/inkscape"
   xmlns:sodipodi="http://sodipodi.sourceforge.net/DTD/sodipodi-0.dtd"
   xmlns="http://www.w3.org/2000/svg"
   xmlns:svg="http://www.w3.org/2000/svg">
  <sodipodi:namedview
     id="namedview7"
     pagecolor="#ffffff"
     bordercolor="#000000"
     borderopacity="1"
     inkscape:pageshadow="0"
     inkscape:pageopacity="1"
     inkscape:pagecheckerboard="false"
     inkscape:document-units="px"
     showgrid="false"
     fit-margin-top="10"
     lock-margins="false"
     fit-margin-left="10"
     fit-margin-right="10"
     fit-margin-bottom="10"
     borderlayer="true"
     inkscape:showpageshadow="false"
     inkscape:zoom="4.5585938"
     inkscape:cx="-43.215081"
     inkscape:cy="163.97601"
     inkscape:window-width="3440"
     inkscape:window-height="1376"
     inkscape:window-x="0"
     inkscape:window-y="27"
     inkscape:window-maximized="1"
     inkscape:current-layer="layer1"
     units="px"
     showguides="true"
     inkscape:guide-bbox="true"
     inkscape:snap-bbox="true"
     inkscape:bbox-paths="true"
     inkscape:bbox-nodes="true"
     inkscape:snap-bbox-edge-midpoints="true"
     inkscape:snap-bbox-midpoints="true"
     inkscape:object-paths="true"
     inkscape:snap-intersection-paths="true"
     inkscape:snap-smooth-nodes="true"
     inkscape:snap-midpoints="true"
     inkscape:snap-object-midpoints="true"
     inkscape:snap-center="true"
     inkscape:snap-page="true"
     inkscape:snap-global="true"
     scale-x="1">
    <sodipodi:guide
       position="128,-64.000001"
       orientation="0,-1"
       id="guide3457" />
    <sodipodi:guide
       position="128,-1.1542969e-06"
       orientation="0,-1"
       id="guide3459" />
    <sodipodi:guide
       position="128,63.999999"
       orientation="0,-1"
       id="guide3461" />
    <sodipodi:guide
       position="128,128"
       orientation="0,-1"
       id="guide3463" />
    <sodipodi:guide
       position="3.621582e-06,128"
       orientation="1,0"
       id="guide3465" />
    <sodipodi:guide
       position="128,128"
       orientation="1,0"
       id="guide3467" />
    <sodipodi:guide
       position="128,-128"
       orientation="0,-1"
       id="guide3469" />
    <sodipodi:guide
       position="128,-192"
       orientation="0,-1"
       id="guide3471" />
    <sodipodi:guide
       position="63.999998,-96.000001"
       orientation="1,0"
       id="guide4142" />
  </sodipodi:namedview>
  <defs
     id="defs2" />
  <g
     inkscape:label="Layer 1"
     inkscape:groupmode="layer"
     id="layer1"
     transform="translate(-6.211796,-16.348357)">
    <rect
       style="font-variation-settings:normal;opacity:1;vector-effect:none;fill:#ffffff;fill-opacity:1;fill-rule:evenodd;stroke:none;stroke-width:0.395832;stroke-linecap:butt;stroke-linejoin:miter;stroke-miterlimit:4;stroke-dasharray:none;stroke-dashoffset:0;stroke-opacity:1;-inkscape-stroke:none;stop-color:#000000;stop-opacity:1"
       id="rect3255"
       width="128"
       height="64"
       x="6.2117996"
       y="-47.651642" />
    <rect
       style="font-variation-settings:normal;opacity:1;vector-effect:none;fill:#ffffff;fill-opacity:1;fill-rule:evenodd;stroke:none;stroke-width:0.395832;stroke-linecap:butt;stroke-linejoin:miter;stroke-miterlimit:4;stroke-dasharray:none;stroke-dashoffset:0;stroke-opacity:1;-inkscape-stroke:none;stop-color:#000000;stop-opacity:1"
       id="rect3153"
       width="128"
       height="64"
       x="6.2117958"
       y="16.348356" />
    <path
       id="path4362"
       style="color:#000000;fill:#000000;stroke-width:3.75131;stroke-linecap:round;-inkscape-stroke:none"
       d="m 18.323501,63.340549 c -0.01943,0.0022 -0.03939,0.0061 -0.05859,0.0098 -0.02,0.0023 -0.03884,0.0039 -0.05859,0.0078 -0.01824,0.005 -0.03688,0.01124 -0.05469,0.01758 -0.02056,0.0056 -0.04054,0.01228 -0.06055,0.01953 -0.01691,0.0077 -0.03449,0.01652 -0.05078,0.02539 -0.01959,0.0089 -0.03788,0.01887 -0.05664,0.0293 -0.01563,0.01021 -0.03206,0.01995 -0.04687,0.03125 -0.01741,0.01131 -0.03437,0.02445 -0.05078,0.03711 0,0 -1.239892,1.028356 -2.474609,2.589844 -1.23472,1.561478 -2.525391,3.682229 -2.525391,6.015625 1.85e-4,0.0457 0.003,0.09181 0.01172,0.136718 0.158283,2.81541 2.571579,5.080078 5.488281,5.080079 2.915789,0 5.326683,-2.263957 5.486329,-5.078126 0.0088,-0.04579 0.01365,-0.09208 0.01367,-0.138671 0,-2.333396 -1.292626,-4.454139 -2.527343,-6.015625 -1.224921,-1.549098 -2.453202,-2.571708 -2.472657,-2.587891 0,0 0,-0.002 0,-0.002 0,0 -0.002,0 -0.002,0 -0.01304,-0.0098 -0.02736,-0.02032 -0.04101,-0.0293 -0.01818,-0.01412 -0.03723,-0.02661 -0.05664,-0.03906 -0.01583,-0.0086 -0.03046,-0.01791 -0.04687,-0.02539 -0.01929,-0.01059 -0.0404,-0.02037 -0.06055,-0.0293 -0.0177,-0.0063 -0.0346,-0.01058 -0.05273,-0.01563 -0.02007,-0.0073 -0.04188,-0.01394 -0.0625,-0.01953 -0.01891,-0.0037 -0.0375,-0.0075 -0.05664,-0.0098 -0.01994,-0.004 -0.04035,-0.0074 -0.06055,-0.0098 h -0.002 c -0.0201,-8.14e-4 -0.03849,-7.29e-4 -0.05859,0 -0.01954,-7.72e-4 -0.03904,-6.86e-4 -0.05859,0 h -0.002 z m 0.06055,1.773437 c 0.433234,0.409541 1.094077,1.076627 1.757813,1.916016 1.130626,1.429853 2.205024,3.325861 2.205078,5.09375 h -0.0078 c -0.08647,2.074069 -1.831828,3.712696 -3.955078,3.71289 -2.121618,-0.0024 -3.862813,-1.640414 -3.949218,-3.71289 h -0.01172 c 5.3e-5,-1.767889 1.074451,-3.663897 2.205078,-5.09375 0.66374,-0.839401 1.322621,-1.506475 1.755859,-1.916016 z m 0.171875,1.794922 a 0.5,0.5 0 0 0 -0.355469,0.140625 0.5,0.5 0 0 0 -0.01367,0.707031 c 0,0 0.66575,0.696614 1.013671,1.154297 0.354727,0.466636 0.839844,1.25 0.839844,1.25 a 0.5,0.5 0 0 0 0.689453,0.164062 0.5,0.5 0 0 0 0.16211,-0.6875 c 0,0 -0.482313,-0.787813 -0.894531,-1.330078 -0.419027,-0.551218 -1.089844,-1.24414 -1.089844,-1.24414 a 0.5,0.5 0 0 0 -0.351564,-0.154297 z"
       inkscape:export-filename="/home/jenkins/hacking/air_quality_semaphore/air_quality_semaphore/graphics/icon_hum.png"
       inkscape:export-xdpi="96"
       inkscape:export-ydpi="96" />
    <path
       id="path5960"
       style="fill:#000000;stroke:none;stroke-width:3.67334;stroke-linecap:round;stroke-linejoin:round;stroke-miterlimit:4;stroke-dasharray:none;paint-order:markers stroke fill"
       d="m 18.384878,39.06989 c -1.411521,-8e-6 -2.564079,1.116578 -2.564072,2.484043 v 8.697444 c -0.895161,0.732661 -1.433744,1.798591 -1.434795,2.942264 -10e-6,2.135393 1.794681,3.876261 3.998867,3.876249 2.204187,8e-6 4.001149,-1.740861 4.001133,-3.876249 -1.38e-4,-1.144744 -0.538795,-2.213312 -1.434794,-2.946649 v -8.693059 c 0,-1.367461 -1.154818,-2.484047 -2.566339,-2.484043 z m 0,0.90329 c 0.907284,0 1.633955,0.701791 1.633951,1.580753 v 8.885995 c -2e-5,0.143491 0.07097,0.278742 0.19009,0.363948 0.783705,0.560514 1.244587,1.446033 1.244697,2.389769 1.1e-5,1.646891 -1.368801,2.972967 -3.068746,2.972959 -1.699946,1.2e-5 -3.066483,-1.326068 -3.066476,-2.972959 0.0011,-0.942668 0.461845,-1.827675 1.244696,-2.387574 0.11913,-0.08524 0.190118,-0.220495 0.190098,-0.363948 v -8.888186 c -7e-6,-0.878966 0.724398,-1.580757 1.631682,-1.580754 z m -0.0341,3.654808 c -0.369755,0.01823 -0.665348,0.314777 -0.665348,0.677467 v 6.99172 c -0.827791,0.286297 -1.379822,1.044942 -1.380481,1.896466 3.7e-5,1.113419 0.93048,2.017115 2.079771,2.017054 1.149224,-3.7e-5 2.082,-0.903703 2.082039,-2.017054 -1.9e-5,-0.851998 -0.552258,-1.612132 -1.38048,-1.898661 v -6.989525 c 0,-0.374428 -0.315119,-0.677467 -0.701559,-0.677467 -0.01215,0 -0.02195,-5.84e-4 -0.0341,0 z"
       inkscape:export-filename="/home/jenkins/hacking/air_quality_semaphore/air_quality_semaphore/graphics/icon_temp.png"
       inkscape:export-xdpi="96"
       inkscape:export-ydpi="96" />
    <path
       id="path51"
       style="fill:#000000;fill-opacity:1;stroke:none;stroke-width:0.36015;stroke-linecap:round;stroke-linejoin:round;stroke-miterlimit:10;stroke-dasharray:none;stroke-opacity:1"
       d="m 13.057398,-37.187074 -2.587622,2.134201 -0.25798,3.009773 1.798045,3.404559 0.132899,2.314007 2.22215,3.889251 1.700326,-5.31987 v -0.002 l -2.91987,-3.684039 0.386971,-2.665798 2.390228,2.095114 3.398696,0.510097 -1.342671,6.160261 -3.605863,2.915961 0.0078,0.01368 0.002,-0.002 0.443649,9.398696 3.910749,6.4045601 3.789576,2.72443 1.856678,4.371987 1.414983,1.086645 3.433877,1.373942 1.293811,1.303583 2.751791,1.522475 2.46254,0.1114 h 0.09967 l 2.464495,-0.1114 2.749837,-1.522475 1.293811,-1.303583 3.433877,-1.373942 1.414983,-1.086645 1.856678,-4.371987 3.789576,-2.72443 3.910749,-6.4045601 0.445603,-9.396742 0.0078,-0.01564 -3.601954,-2.914007 -1.342671,-6.160261 3.396742,-0.510097 2.390228,-2.095114 0.386971,2.667752 -2.91987,3.682085 v 0.002 l 1.698372,5.315961 2.224104,-3.885342 0.1329,-2.312051 1.79609,-3.406514 -0.256026,-3.009773 -2.587622,-2.134201 -4.244952,1.174593 -3.642997,1.766775 v 0.002 l -1.583061,0.76417 -1.956352,-0.277526 -11.261238,-1.596743 -0.01173,-0.002 -0.0059,0.002 -0.02736,0.0098 -0.02736,-0.0098 -0.0059,-0.002 -0.01368,0.002 c -4.405585,0.625119 -8.810172,1.248471 -13.215636,1.874269 l -1.583061,-0.766125 -3.642997,-1.76873 z m 108.549192,6.826709 -5.8417,13.727687 h 3.05667 l 1.24496,-3.056677 h 5.76547 l 1.24495,3.056677 h 3.13486 l -5.84169,-13.727687 z m -51.660594,0.09772 v 13.629966 h 2.998046 v -4.166774 l 1.577199,-1.635831 4.225407,5.802605 h 3.601954 l -5.802606,-7.846905 5.548534,-5.783061 h -3.621499 l -5.528989,5.958957 v -5.958957 z m 15.732899,0 v 7.788273 c 0,4.011401 2.238072,6.056677 5.898371,6.056677 3.660302,0 5.978502,-2.026637 5.978502,-6.154397 v -7.690553 h -2.998046 v 7.807817 c 0,2.161073 -1.111218,3.271661 -2.941368,3.271661 -1.830823,0 -2.939414,-1.149121 -2.939414,-3.369381 v -7.710097 z m 15.912705,0 v 13.629966 h 2.99805 v -4.36026 h 2.357 l 2.91987,4.36026 h 3.50619 l -3.33029,-4.868403 c 1.73263,-0.643009 2.91987,-2.025325 2.91987,-4.225407 v -0.03909 c 0,-1.284672 -0.40869,-2.355261 -1.16873,-3.115309 -0.89524,-0.895234 -2.23871,-1.381759 -3.97134,-1.381759 z m 2.99805,2.70684 h 2.98045 c 1.46022,0 2.35505,0.661237 2.35505,1.946579 v 0.03909 c 0,1.148798 -0.8362,1.927035 -2.29641,1.927035 h -3.03909 z m 18.3596,0.797394 1.81173,4.420846 h -3.62345 z M 26.056095,-20.9089 h 0.002 l 3.752443,1.755049 1.05733,2.099023 -2.083389,-1.463843 0.179805,2.014983 1.948534,1.340716 -0.002,0.0059 -6.187621,-1.688599 -0.770033,-0.209121 -1.399348,-1.831271 -2.100977,-0.799348 3.627362,-0.04691 -3.625408,0.04495 z m -1.975895,1.176547 v 1.577199 l 0.783713,0.857981 2.351139,0.529642 1.041695,-0.92443 v -1.198046 h -0.002 l -1.25077,-0.877524 z m 21.443647,-1.176546 h 0.002 l 5.603258,1.221499 -2.099024,0.801302 -1.401302,1.831271 -0.768079,0.209121 -6.187621,1.688599 -0.002,-0.0078 1.946579,-1.338762 0.179805,-2.014983 -2.083388,1.463843 1.059283,-2.099023 z m -0.943974,1.141368 -1.252769,0.877525 v 1.198046 l 1.041694,0.92443 2.349185,-0.529642 0.785669,-0.857981 v -1.577199 z m 76.846907,10.2977201 c -0.3437,0 -0.67158,0.0498 -0.98501,0.144626 -0.31278,0.09618 -0.5905,0.237121 -0.83062,0.424104 -0.24013,0.186991 -0.43141,0.420545 -0.57265,0.699673 -0.14193,0.279139 -0.21302,0.597211 -0.21302,0.955701 0,0.382045 0.0595,0.703885 0.17785,0.963518 0.11838,0.258944 0.27651,0.475392 0.47492,0.646906 0.19909,0.171515 0.42412,0.310609 0.67231,0.41824 0.24819,0.106943 0.50316,0.201949 0.76613,0.285343 0.26365,0.08475 0.51987,0.168042 0.76807,0.252117 0.24751,0.08407 0.47193,0.186511 0.67036,0.304886 0.1984,0.118385 0.35654,0.267838 0.47491,0.451465 0.11841,0.18362 0.17981,0.417847 0.17981,0.699675 0,0.24482 -0.0499,0.463584 -0.14462,0.658632 -0.0962,0.194389 -0.22481,0.360488 -0.38893,0.498371 -0.16412,0.137204 -0.35783,0.243861 -0.58046,0.320521 -0.22129,0.076 -0.45721,0.11531 -0.70944,0.11531 -0.40558,0 -0.76528,-0.08396 -1.08273,-0.252117 -0.3168,-0.168152 -0.57553,-0.424386 -0.77395,-0.768078 l -0.72118,0.480781 c 0.32083,0.44325 0.70635,0.758938 1.15701,0.945929 0.45063,0.186973 0.9428,0.281433 1.47753,0.281433 0.32823,0 0.64642,-0.05096 0.95179,-0.150489 0.30536,-0.09887 0.57376,-0.245358 0.80716,-0.439739 0.23272,-0.195048 0.41979,-0.434092 0.55701,-0.717264 0.13725,-0.282492 0.20521,-0.606729 0.20521,-0.97329 0,-0.504452 -0.10299,-0.899789 -0.3088,-1.186319 -0.20648,-0.286529 -0.46452,-0.510278 -0.77393,-0.670359 -0.30941,-0.161425 -0.64527,-0.286879 -1.00848,-0.383061 -0.36254,-0.09484 -0.69907,-0.205799 -1.00847,-0.332248 -0.30939,-0.125783 -0.56678,-0.298037 -0.77394,-0.515961 -0.20651,-0.217923 -0.30879,-0.528622 -0.30879,-0.934202 0,-0.259617 0.049,-0.485204 0.14853,-0.676222 0.0989,-0.190347 0.23195,-0.348468 0.39674,-0.474918 0.16411,-0.125785 0.35723,-0.222064 0.57851,-0.287296 0.22129,-0.06457 0.45357,-0.09577 0.69771,-0.09577 0.3511,0 0.65517,0.0655 0.91076,0.199347 0.25626,0.133849 0.48062,0.334937 0.6723,0.601955 l 0.65278,-0.469055 c -0.27509,-0.367239 -0.60243,-0.629624 -0.98111,-0.785669 -0.37733,-0.157393 -0.78803,-0.236481 -1.23127,-0.236481 z m -46.968081,0.207166 v 8.112704 h 4.536156 v -0.687948 h -3.781758 v -7.424756 z m 16.383713,0 -3.541368,8.112704 h 0.789577 l 0.916611,-2.153746 h 4.29772 l 0.881433,2.153746 h 0.848209 l -3.414332,-8.112704 z m 13.407168,0 v 8.112704 h 2.58958 c 0.27509,0 0.56983,-0.02998 0.88729,-0.09186 0.31748,-0.06053 0.613,-0.175834 0.8834,-0.343974 0.27173,-0.168157 0.49662,-0.397929 0.67622,-0.691857 0.17955,-0.294599 0.2697,-0.675256 0.2697,-1.141368 0,-0.282494 -0.0454,-0.541093 -0.1329,-0.77785 -0.0874,-0.236749 -0.21126,-0.441503 -0.37134,-0.613681 -0.16076,-0.171514 -0.35135,-0.310139 -0.57263,-0.412378 -0.22196,-0.103574 -0.46716,-0.166711 -0.73486,-0.189576 v -0.02345 c 0.48159,-0.09887 0.84378,-0.300509 1.0886,-0.605863 0.24482,-0.305368 0.36743,-0.665855 0.36743,-1.078827 0,-0.458041 -0.0785,-0.825105 -0.23452,-1.104235 -0.15673,-0.279123 -0.35897,-0.496061 -0.60783,-0.652769 -0.24887,-0.156709 -0.5289,-0.260977 -0.84234,-0.310749 -0.31209,-0.04975 -0.62298,-0.07427 -0.92834,-0.07427 z m 0.75635,0.687948 h 1.67297 c 0.23674,0 0.463,0.02333 0.67622,0.0684 0.21455,0.04573 0.40083,0.12423 0.56091,0.234527 0.16008,0.110982 0.2882,0.259901 0.38306,0.447558 0.0961,0.187656 0.14463,0.421756 0.14463,0.703583 0,0.130479 -0.0226,0.273923 -0.0684,0.429967 -0.0464,0.157389 -0.13835,0.304475 -0.27557,0.441693 -0.13721,0.137891 -0.32848,0.254326 -0.57263,0.349838 -0.24415,0.0962 -0.56236,0.142671 -0.9518,0.142671 h -1.56938 z m -13.809772,0.136807 1.833224,4.446255 h -3.723127 z m -57.92052,1.49316 2.497719,0.312704 h 0.03713 l 2.49772,-0.312704 2.405863,1.375896 -3.668404,0.02541 -1.235179,1.260586 h -0.03713 l -1.237133,-1.260586 -3.668403,-0.02541 z m 71.730292,1.876222 h 1.84495 c 0.23675,0 0.47215,0.03133 0.70554,0.09186 0.23272,0.06187 0.43983,0.157343 0.62346,0.291204 0.18293,0.133842 0.33253,0.308611 0.44755,0.521825 0.11427,0.213888 0.17199,0.469443 0.17199,0.768078 0,0.144602 -0.0245,0.307719 -0.0743,0.486645 -0.0498,0.180252 -0.14789,0.349333 -0.29316,0.510098 -0.14528,0.160073 -0.35434,0.294393 -0.62541,0.400651 -0.27105,0.106946 -0.62778,0.160261 -1.07101,0.160261 h -1.72964 z m -74.628664,1.039739 3.299023,0.785668 0.433876,1.846906 -1.344625,-0.572639 -0.519869,-0.607818 -0.883389,-0.504234 z m 10.827362,0 -0.983062,0.947883 -0.883388,0.504234 -0.521824,0.607818 -1.342671,0.572639 0.431922,-1.846906 z"
       inkscape:export-filename="/home/jenkins/hacking/air_quality_semaphore/air_quality_semaphore/graphics/kuralabs.png"
       inkscape:export-xdpi="96"
       inkscape:export-ydpi="96" />
    <g
       id="g797"
       transform="matrix(1.0974407,0,0,1.0974407,-752.59293,184.11939)">
      <path
         id="path779"
         style="fill:#c87137;fill-opacity:1;stroke:none;stroke-width:0.327959;stroke-linecap:round;stroke-linejoin:round;stroke-miterlimit:10;stroke-dasharray:none;stroke-opacity:1"
         d="m 57.882426,27.485804 -3.866002,1.069452 -3.31692,1.608663 v 0.0018 l -1.440893,0.697088 -1.780926,-0.253005 -10.254916,-1.454355 -0.01158,-0.0018 -0.0055,0.0018 -0.02419,0.009 -0.02512,-0.009 -0.0055,-0.0018 -0.01259,0.0018 c -4.011804,0.569243 -8.02326,1.137498 -12.034954,1.70736 l -1.440996,-0.697973 -3.316916,-1.610457 -3.865109,-1.067658 -2.357822,1.942418 -0.234164,2.740927 1.637375,3.100698 0.120219,2.106608 2.024962,3.541221 1.548555,-4.843945 v -0.0018 l -2.659281,-3.353702 0.352599,-2.428699 2.176589,1.907425 3.093521,0.464748 -1.221977,5.610148 -3.283729,2.655691 0.0072,0.01259 0.0013,-0.0018 0.404639,8.557425 3.561856,5.832651 3.450603,2.481637 1.690308,3.980843 1.289267,0.989608 3.126715,1.250686 1.178014,1.186987 2.504967,1.386161 2.242983,0.102289 h 0.09151 l 2.242982,-0.102289 2.504966,-1.386161 1.177114,-1.186987 3.127611,-1.250686 1.289267,-0.989608 1.690314,-3.980843 3.449705,-2.481637 3.561853,-5.832651 0.405524,-8.556525 0.0071,-0.01344 -3.280138,-2.653897 v -6.12e-4 l -1.221975,-5.609253 3.092617,-0.464748 2.177488,-1.907426 0.351706,2.428697 -2.659281,3.353705 v 0.0018 l 1.546764,4.840353 2.025859,-3.537632 0.120219,-2.105712 1.636474,-3.101593 -0.233275,-2.740924 z M 28.317232,42.309219 h 0.0018 l 3.416507,1.597901 0.96269,1.911022 -1.897567,-1.332335 -0.282612,-0.198279 0.282612,0.199179 0.164192,1.834762 1.774648,1.219285 -0.0018,0.0055 -5.635271,-1.536894 -0.700705,-0.191101 -1.274016,-1.666091 -1.912817,-0.729411 3.301672,-0.04129 -3.300771,0.04037 z m -1.800665,1.072144 v 1.435511 l 0.714167,0.78056 2.140699,0.483587 0.948332,-0.841572 v -1.090986 -0.0013 h -6.11e-4 l -1.139411,-0.799334 z m 19.527399,-1.072144 h 0.0018 l 5.102338,1.11252 -1.911922,0.730314 -1.274909,1.666089 -0.699812,0.191102 -5.635265,1.536893 -0.0018,-0.0055 1.773752,-1.219289 0.164192,-1.834757 0.481791,-0.339137 -0.481791,0.338237 -1.897565,1.332337 0.964484,-1.911022 z m -1.999839,1.83835 v 1.09188 l 0.948334,0.841572 2.139803,-0.483587 0.714162,-0.78056 v -1.435511 l -2.66197,-0.03319 z m -9.154058,10.878462 2.274385,0.283513 h 0.03498 l 2.27349,-0.283513 2.191841,1.25248 -3.340248,0.02334 -1.125083,1.146612 h -0.03498 l -1.125979,-1.146612 -3.340252,-0.02334 z m -2.637747,2.654791 3.003798,0.715064 0.393871,1.682236 -1.222872,-0.522161 -0.474615,-0.553569 -0.804785,-0.458469 z m 9.859253,0 -0.895402,0.863101 -0.804784,0.458469 -0.475507,0.553569 -1.222875,0.522161 0.394759,-1.682236 z" />
      <path
         d="m 68.282816,33.791994 h 2.730452 v 5.425374 l 5.03584,-5.425374 h 3.297 l -5.052989,5.266135 5.283896,7.145227 h -3.279851 l -3.847623,-5.28389 -1.436273,1.488942 v 3.794948 h -2.730452 z"
         style="fill:#c87137;fill-opacity:1;fill-rule:nonzero;stroke:none;stroke-width:0.612483"
         id="path781" />
      <path
         d="M 82.609788,40.884003 V 33.79205 h 2.729839 v 7.0209 c 0,2.021807 1.010599,3.067937 2.677779,3.067937 1.666567,0 2.677166,-1.011218 2.677166,-2.979129 V 33.79205 h 2.730452 v 7.003137 c 0,3.758812 -2.110007,5.603006 -5.443143,5.603006 -3.333134,0 -5.372093,-1.861337 -5.372093,-5.51419"
         style="fill:#c87137;fill-opacity:1;fill-rule:nonzero;stroke:none;stroke-width:0.612483"
         id="path783" />
      <path
         d="m 102.59746,39.819935 c 1.3297,0 2.09224,-0.708649 2.09224,-1.754765 v -0.03553 c 0,-1.170456 -0.81583,-1.773141 -2.14553,-1.773141 h -2.713302 v 3.563436 z m -5.497044,-6.02807 h 5.674044 c 1.57776,0 2.8015,0.443438 3.61672,1.258654 0.69211,0.692114 1.0645,1.667181 1.0645,2.837025 v 0.03553 c 0,2.003434 -1.08165,3.262088 -2.65941,3.847623 l 3.0318,4.432544 h -3.19166 L 101.9764,42.23189 h -2.145532 v 3.971344 h -2.730452 z"
         style="fill:#c87137;fill-opacity:1;fill-rule:nonzero;stroke:none;stroke-width:0.612483"
         id="path785" />
      <path
         d="m 118.19845,41.008399 -1.64881,-4.025249 -1.64941,4.025249 z m -2.87255,-7.305098 h 2.51793 l 5.3188,12.499572 h -2.85478 l -1.13433,-2.783132 h -5.24898 l -1.13432,2.783132 h -2.78373 z"
         style="fill:#c87137;fill-opacity:1;fill-rule:nonzero;stroke:none;stroke-width:0.612483"
         id="path787" />
      <path
         d="M 72.391969,52.914768 H 73.0804 v 6.761219 h 3.443383 v 0.62657 h -4.131814 z"
         style="fill:#c87137;fill-opacity:1;fill-rule:nonzero;stroke:none;stroke-width:0.612483"
         id="path789" />
      <path
         d="m 87.634114,53.665979 -1.721692,4.04853 h 3.391322 z m -0.32278,-0.751517 h 0.709257 l 3.108967,7.387783 h -0.77173 L 89.55425,58.340461 h -3.913159 l -0.834202,1.961784 h -0.720281 z"
         style="fill:#c87137;fill-opacity:1;fill-rule:nonzero;stroke:none;stroke-width:0.612483"
         id="path791" />
      <path
         d="m 100.20975,59.675987 h 1.57531 c 0.40362,0 0.72885,-0.04839 0.97568,-0.145773 0.24684,-0.09676 0.43671,-0.219268 0.569,-0.365034 0.13229,-0.146395 0.2205,-0.300734 0.26582,-0.464875 0.0453,-0.162933 0.068,-0.311147 0.068,-0.442825 0,-0.271942 -0.0521,-0.504693 -0.15618,-0.699463 -0.10474,-0.194157 -0.24071,-0.35279 -0.4073,-0.474669 -0.16722,-0.121897 -0.35647,-0.210086 -0.56839,-0.26643 -0.21253,-0.05512 -0.42629,-0.0833 -0.64188,-0.0833 h -1.68004 z m 0,-3.568336 h 1.42954 c 0.35463,0 0.64372,-0.04286 0.86605,-0.13046 0.22233,-0.08697 0.39689,-0.192933 0.52183,-0.318499 0.12496,-0.124953 0.20825,-0.258461 0.25051,-0.401783 0.0417,-0.142096 0.0619,-0.27256 0.0619,-0.391377 0,-0.256636 -0.0429,-0.470386 -0.13046,-0.641269 -0.0864,-0.170884 -0.20335,-0.305636 -0.34912,-0.406697 -0.14577,-0.100439 -0.31604,-0.17272 -0.51142,-0.214363 -0.19416,-0.04104 -0.39996,-0.06248 -0.61555,-0.06248 h -1.52325 z m -0.688431,-3.192883 h 2.128381 c 0.27807,0 0.56042,0.02267 0.84461,0.06798 0.28542,0.04532 0.54083,0.13904 0.76745,0.281742 0.22662,0.142701 0.41036,0.340548 0.55307,0.594722 0.1421,0.25418 0.21375,0.589215 0.21375,1.006316 0,0.376059 -0.11086,0.703126 -0.3338,0.9812 -0.22294,0.27806 -0.55307,0.463037 -0.99161,0.553072 v 0.02144 c 0.24377,0.02082 0.4661,0.07779 0.66822,0.172107 0.20151,0.0931 0.37545,0.218657 0.52184,0.37484 0.14577,0.156788 0.25908,0.342997 0.3387,0.558585 0.0796,0.215595 0.12066,0.452013 0.12066,0.709257 0,0.42445 -0.0821,0.770504 -0.24561,1.038771 -0.16354,0.267656 -0.36871,0.477738 -0.61616,0.630865 -0.24622,0.153111 -0.51387,0.257849 -0.80297,0.312973 -0.28909,0.05635 -0.55797,0.0833 -0.80847,0.0833 h -2.358065 z"
         style="fill:#c87137;fill-opacity:1;fill-rule:nonzero;stroke:none;stroke-width:0.612483"
         id="path793" />
      <path
         d="m 113.25375,58.935494 c 0.18068,0.312972 0.41527,0.546329 0.70375,0.69945 0.28908,0.153127 0.61738,0.229682 0.98671,0.229682 0.22968,0 0.44466,-0.03553 0.64617,-0.104737 0.20273,-0.06981 0.37789,-0.167215 0.52735,-0.292155 0.14945,-0.125558 0.26765,-0.276836 0.35524,-0.45385 0.0863,-0.177614 0.13046,-0.377289 0.13046,-0.600227 0,-0.256637 -0.0545,-0.46917 -0.16231,-0.636378 -0.1078,-0.167214 -0.25235,-0.304398 -0.43303,-0.412201 -0.18068,-0.107794 -0.38464,-0.200282 -0.61003,-0.276842 -0.22601,-0.07656 -0.45937,-0.152506 -0.69947,-0.229681 -0.23947,-0.07594 -0.47283,-0.162916 -0.69883,-0.2603 -0.22601,-0.09801 -0.42936,-0.224793 -0.61065,-0.380977 -0.18068,-0.156183 -0.32523,-0.353403 -0.43303,-0.589203 -0.10779,-0.236426 -0.16169,-0.529186 -0.16169,-0.877083 0,-0.326448 0.0637,-0.616764 0.19294,-0.870952 0.12861,-0.25418 0.30317,-0.466094 0.52183,-0.636371 0.21866,-0.17027 0.47161,-0.29889 0.75642,-0.38647 0.28542,-0.08635 0.58431,-0.130461 0.89729,-0.130461 0.40362,0 0.77784,0.07104 1.12145,0.214364 0.34483,0.142096 0.64189,0.380352 0.89239,0.714767 l -0.59411,0.427515 c -0.17455,-0.243151 -0.3779,-0.425676 -0.61126,-0.54756 -0.23274,-0.121881 -0.50958,-0.182516 -0.8293,-0.182516 -0.22233,0 -0.43486,0.0294 -0.63637,0.0882 -0.20151,0.0594 -0.37729,0.146377 -0.52673,0.260919 -0.15006,0.115148 -0.27011,0.259687 -0.36014,0.43302 -0.0907,0.173944 -0.13597,0.379133 -0.13597,0.615545 0,0.369328 0.0937,0.652295 0.28174,0.850739 0.18865,0.198446 0.42261,0.35463 0.70435,0.46917 0.28175,0.115147 0.58799,0.2162 0.91812,0.302561 0.33074,0.08759 0.63636,0.20335 0.91811,0.350346 0.28175,0.145773 0.51694,0.349115 0.70496,0.610033 0.18742,0.26092 0.28175,0.620453 0.28175,1.079816 0,0.333797 -0.0631,0.629627 -0.18804,0.886869 -0.12495,0.257862 -0.29399,0.474682 -0.5059,0.652296 -0.21254,0.177007 -0.45753,0.311148 -0.73559,0.401183 -0.27808,0.09063 -0.56716,0.135967 -0.86606,0.135967 -0.48693,0 -0.93587,-0.08514 -1.34623,-0.255405 -0.41037,-0.170277 -0.76193,-0.457525 -1.05409,-0.861157 z"
         style="fill:#c87137;fill-opacity:1;fill-rule:nonzero;stroke:none;stroke-width:0.612483"
         id="path795" />
    </g>
    <g
       id="g1359"
       transform="matrix(0.09789886,0,0,0.09789886,-652.85908,185.33685)">
      <circle
         style="fill:#ff0000;stroke:none;stroke-width:10.5241;stroke-linecap:round;stroke-linejoin:round;paint-order:markers stroke fill"
         id="path1217"
         cx="-782.49536"
         cy="19.661633"
         r="62.051727" />
      <circle
         style="fill:#ff0000;stroke:none;stroke-width:12.0972;stroke-linecap:round;stroke-linejoin:round;paint-order:markers stroke fill"
         id="circle1343"
         cx="-714.39789"
         cy="-24.033587"
         r="71.327164" />
      <circle
         style="fill:#ff0000;stroke:none;stroke-width:14.9601;stroke-linecap:round;stroke-linejoin:round;paint-order:markers stroke fill"
         id="circle1345"
         cx="-600.70569"
         cy="-43.051033"
         r="88.20752" />
      <circle
         style="fill:#ff0000;stroke:none;stroke-width:10.9738;stroke-linecap:round;stroke-linejoin:round;paint-order:markers stroke fill"
         id="circle1347"
         cx="-510.20422"
         cy="16.807364"
         r="64.703682" />
      <circle
         style="fill:#ff0000;stroke:none;stroke-width:10.9738;stroke-linecap:round;stroke-linejoin:round;paint-order:markers stroke fill"
         id="circle1349"
         cx="-598.91821"
         cy="53.243908"
         r="64.703682" />
      <circle
         style="fill:#ff0000;stroke:none;stroke-width:10.9738;stroke-linecap:round;stroke-linejoin:round;paint-order:markers stroke fill"
         id="circle1351"
         cx="-690.36707"
         cy="54.235928"
         r="64.703682" />
    </g>
    <g
       id="g1453"
       transform="matrix(0.04510752,0,0,0.04796198,47.481436,27.095332)"
       style="fill:#000000"
       inkscape:export-filename="/home/jenkins/hacking/air_quality_semaphore/air_quality_semaphore/graphics/icon_co2.png"
       inkscape:export-xdpi="96"
       inkscape:export-ydpi="96">
      <circle
         style="fill:#000000;stroke:none;stroke-width:10.5241;stroke-linecap:round;stroke-linejoin:round;paint-order:markers stroke fill"
         id="circle1441"
         cx="-782.49536"
         cy="19.661633"
         r="62.051727" />
      <circle
         style="fill:#000000;stroke:none;stroke-width:12.0972;stroke-linecap:round;stroke-linejoin:round;paint-order:markers stroke fill"
         id="circle1443"
         cx="-714.39789"
         cy="-24.033587"
         r="71.327164" />
      <circle
         style="fill:#000000;stroke:none;stroke-width:14.9601;stroke-linecap:round;stroke-linejoin:round;paint-order:markers stroke fill"
         id="circle1445"
         cx="-600.70569"
         cy="-43.051033"
         r="88.20752" />
      <circle
         style="fill:#000000;stroke:none;stroke-width:10.9738;stroke-linecap:round;stroke-linejoin:round;paint-order:markers stroke fill"
         id="circle1447"
         cx="-510.20422"
         cy="16.807364"
         r="64.703682" />
      <circle
         style="fill:#000000;stroke:none;stroke-width:10.9738;stroke-linecap:round;stroke-linejoin:round;paint-order:markers stroke fill"
         id="circle1449"
         cx="-598.91821"
         cy="53.243908"
         r="64.703682" />
      <circle
         style="fill:#000000;stroke:none;stroke-width:10.9738;stroke-linecap:round;stroke-linejoin:round;paint-order:markers stroke fill"
         id="circle1451"
         cx="-690.36707"
         cy="54.235928"
         r="64.703682" />
    </g>
    <rect
       style="font-variation-settings:normal;opacity:1;vector-effect:none;fill:#ffffff;fill-opacity:1;fill-rule:evenodd;stroke:none;stroke-width:0.395832;stroke-linecap:butt;stroke-linejoin:miter;stroke-miterlimit:4;stroke-dasharray:none;stroke-dashoffset:0;stroke-opacity:1;-inkscape-stroke:none;stop-color:#000000;stop-opacity:1"
       id="rect3253"
       width="128"
       height="64"
       x="6.2117958"
       y="80.348358" />
    <rect
       style="font-variation-settings:normal;opacity:1;vector-effect:none;fill:#ffffff;fill-opacity:1;fill-rule:evenodd;stroke:none;stroke-width:0.395832;stroke-linecap:butt;stroke-linejoin:miter;stroke-miterlimit:4;stroke-dasharray:none;stroke-dashoffset:0;stroke-opacity:1;-inkscape-stroke:none;stop-color:#000000;stop-opacity:1"
       id="rect3291"
       width="128"
       height="64"
       x="6.2117958"
       y="144.34836" />
    <rect
       style="font-variation-settings:normal;opacity:1;vector-effect:none;fill:#ffffff;fill-opacity:1;fill-rule:evenodd;stroke:none;stroke-width:0.395832;stroke-linecap:butt;stroke-linejoin:miter;stroke-miterlimit:4;stroke-dasharray:none;stroke-dashoffset:0;stroke-opacity:1;-inkscape-stroke:none;stop-color:#000000;stop-opacity:1"
       id="rect3293"
       width="128"
       height="64"
       x="6.2117958"
       y="208.34836" />
    <g
       id="g3959"
       inkscape:export-filename="/home/jenkins/hacking/air_quality_semaphore/air_quality_semaphore/graphics/icon_smile_neutral.png"
       inkscape:export-xdpi="96"
       inkscape:export-ydpi="96"
       transform="matrix(1.0337095,0,0,1.0337095,-2.3668085,-3.787207)"
       style="stroke-width:0.96739">
      <circle
         style="fill:none;stroke:#000000;stroke-width:2.90217;stroke-linecap:round;stroke-linejoin:round;stroke-miterlimit:4;stroke-dasharray:none;paint-order:markers stroke fill"
         id="path3353"
         cx="70.2118"
         cy="112.34836"
         r="19.83149" />
      <g
         id="g3854"
         transform="translate(0.38679886,0.78337886)"
         style="stroke-width:0.96739">
        <circle
           style="fill:#000000;stroke:none;stroke-width:7.6535;stroke-linecap:round;stroke-linejoin:round;stroke-miterlimit:4;stroke-dasharray:none;paint-order:markers stroke fill"
           id="path3576"
           cx="62.644852"
           cy="104.47229"
           r="2.7186964" />
        <circle
           style="fill:#000000;stroke:none;stroke-width:7.6535;stroke-linecap:round;stroke-linejoin:round;stroke-miterlimit:4;stroke-dasharray:none;paint-order:markers stroke fill"
           id="circle3702"
           cx="77.00515"
           cy="104.47229"
           r="2.7186964" />
      </g>
      <path
         style="font-variation-settings:normal;opacity:1;fill:none;fill-opacity:1;stroke:#000000;stroke-width:1.93478;stroke-linecap:round;stroke-linejoin:miter;stroke-miterlimit:4;stroke-dasharray:none;stroke-dashoffset:0;stroke-opacity:1;stop-color:#000000;stop-opacity:1"
         d="M 59.523309,120.81751 H 80.90029"
         id="path3737" />
    </g>
    <g
       id="g3971"
       transform="matrix(1.0337095,0,0,1.0337095,-2.3668085,60.212793)"
       style="stroke-width:0.96739"
       inkscape:export-filename="/home/jenkins/hacking/air_quality_semaphore/air_quality_semaphore/graphics/icon_smile_good.png"
       inkscape:export-xdpi="96"
       inkscape:export-ydpi="96">
      <circle
         style="fill:none;stroke:#000000;stroke-width:2.90217;stroke-linecap:round;stroke-linejoin:round;stroke-miterlimit:4;stroke-dasharray:none;paint-order:markers stroke fill"
         id="circle3961"
         cx="70.2118"
         cy="112.34836"
         r="19.83149" />
      <g
         id="g3967"
         transform="translate(0.38679886,0.78337886)"
         style="stroke-width:0.96739">
        <circle
           style="fill:#000000;stroke:none;stroke-width:7.6535;stroke-linecap:round;stroke-linejoin:round;stroke-miterlimit:4;stroke-dasharray:none;paint-order:markers stroke fill"
           id="circle3963"
           cx="62.644852"
           cy="104.47229"
           r="2.7186964" />
        <circle
           style="fill:#000000;stroke:none;stroke-width:7.6535;stroke-linecap:round;stroke-linejoin:round;stroke-miterlimit:4;stroke-dasharray:none;paint-order:markers stroke fill"
           id="circle3965"
           cx="77.00515"
           cy="104.47229"
           r="2.7186964" />
      </g>
      <path
         style="font-variation-settings:normal;opacity:1;fill:none;fill-opacity:1;stroke:#000000;stroke-width:1.93478;stroke-linecap:round;stroke-linejoin:miter;stroke-miterlimit:4;stroke-dasharray:none;stroke-dashoffset:0;stroke-opacity:1;stop-color:#000000;stop-opacity:1"
         d="m 59.523309,118.57074 c 0,0 2.861258,4.38353 10.930792,4.34866 8.069534,-0.0349 10.446189,-4.34866 10.446189,-4.34866"
         id="path3969"
         sodipodi:nodetypes="czc" />
    </g>
    <g
       id="g5008"
       transform="matrix(1.0337095,0,0,1.0337095,-2.3668006,-8.102023)"
       style="stroke-width:0.96739"
       inkscape:export-filename="/home/jenkins/hacking/air_quality_semaphore/air_quality_semaphore/graphics/icon_smile_bad.png"
       inkscape:export-xdpi="96"
       inkscape:export-ydpi="96">
      <circle
         style="fill:none;stroke:#000000;stroke-width:2.90217;stroke-linecap:round;stroke-linejoin:round;stroke-miterlimit:4;stroke-dasharray:none;paint-order:markers stroke fill"
         id="circle3973"
         cx="70.211792"
         cy="240.34836"
         r="19.83149" />
      <path
         style="font-variation-settings:normal;fill:none;fill-opacity:1;stroke:#000000;stroke-width:1.93478;stroke-linecap:round;stroke-linejoin:miter;stroke-miterlimit:4;stroke-dasharray:none;stroke-dashoffset:0;stroke-opacity:1;stop-color:#000000"
         d="m 59.523306,249.68767 c 0,0 2.86126,-4.38353 10.93079,-4.34866 8.06953,0.0349 10.44619,4.34866 10.44619,4.34866"
         id="path3969-3"
         sodipodi:nodetypes="czc" />
      <g
         id="g4764"
         transform="translate(66.248991,-3.707425)"
         style="stroke-width:0.96739">
        <path
           style="font-variation-settings:normal;opacity:1;fill:none;fill-opacity:1;stroke:#000000;stroke-width:1.93478;stroke-linecap:round;stroke-linejoin:miter;stroke-miterlimit:4;stroke-dasharray:none;stroke-dashoffset:0;stroke-opacity:1;stop-color:#000000;stop-opacity:1"
           d="m -5.498773,234.68167 4.5628579,4.56285"
           id="path4645" />
        <path
           style="font-variation-settings:normal;opacity:1;fill:none;fill-opacity:1;stroke:#000000;stroke-width:1.93478;stroke-linecap:round;stroke-linejoin:miter;stroke-miterlimit:4;stroke-dasharray:none;stroke-dashoffset:0;stroke-opacity:1;stop-color:#000000;stop-opacity:1"
           d="m -0.93591905,234.68167 -4.56285005,4.56285"
           id="path4760" />
      </g>
      <g
         id="g4770"
         transform="translate(80.609289,-3.707425)"
         style="stroke-width:0.96739">
        <path
           style="font-variation-settings:normal;opacity:1;fill:none;fill-opacity:1;stroke:#000000;stroke-width:1.93478;stroke-linecap:round;stroke-linejoin:miter;stroke-miterlimit:4;stroke-dasharray:none;stroke-dashoffset:0;stroke-opacity:1;stop-color:#000000;stop-opacity:1"
           d="m -5.498773,234.68167 4.5628579,4.56285"
           id="path4766" />
        <path
           style="font-variation-settings:normal;opacity:1;fill:none;fill-opacity:1;stroke:#000000;stroke-width:1.93478;stroke-linecap:round;stroke-linejoin:miter;stroke-miterlimit:4;stroke-dasharray:none;stroke-dashoffset:0;stroke-opacity:1;stop-color:#000000;stop-opacity:1"
           d="m -0.93591905,234.68167 -4.56285005,4.56285"
           id="path4768" />
      </g>
    </g>
  </g>
</svg>
